<mxfile host="app.diagrams.net" agent="Mozilla/5.0 (Windows NT 10.0; Win64; x64) AppleWebKit/537.36 (KHTML, like Gecko) Chrome/109.0.0.0 Safari/537.36" version="28.0.7">
  <diagram name="Page-1" id="KGJCTRK6Wbv9CJJfgitq">
    <mxGraphModel dx="872" dy="489" grid="1" gridSize="10" guides="1" tooltips="1" connect="1" arrows="1" fold="1" page="1" pageScale="1" pageWidth="850" pageHeight="1100" background="none" math="0" shadow="0">
      <root>
        <mxCell id="0" />
        <mxCell id="1" parent="0" />
        <mxCell id="HIus19SLdsaesvrfWsAR-1" value="Workflow Usage Git and Gihub" style="text;html=1;align=center;verticalAlign=middle;resizable=0;points=[];autosize=1;strokeColor=none;fillColor=none;fontStyle=1;fontSize=20;textShadow=1;labelBackgroundColor=none;fontColor=#143642;" vertex="1" parent="1">
          <mxGeometry x="275" y="3" width="300" height="40" as="geometry" />
        </mxCell>
        <mxCell id="HIus19SLdsaesvrfWsAR-4" value="" style="edgeStyle=orthogonalEdgeStyle;rounded=0;orthogonalLoop=1;jettySize=auto;html=1;labelBackgroundColor=none;strokeColor=#A8201A;fontColor=default;" edge="1" parent="1" source="HIus19SLdsaesvrfWsAR-2" target="HIus19SLdsaesvrfWsAR-3">
          <mxGeometry relative="1" as="geometry">
            <Array as="points">
              <mxPoint x="270" y="87" />
              <mxPoint x="270" y="87" />
            </Array>
          </mxGeometry>
        </mxCell>
        <mxCell id="HIus19SLdsaesvrfWsAR-2" value="&lt;b&gt;&lt;font style=&quot;font-size: 15px;&quot;&gt;1.Dawnload &amp;amp; Instal Git&amp;nbsp;&lt;/font&gt;&lt;/b&gt;&lt;div&gt;&lt;b&gt;&lt;font style=&quot;font-size: 15px;&quot;&gt;2.Create Github Account&lt;/font&gt;&lt;/b&gt;&lt;/div&gt;" style="rounded=1;whiteSpace=wrap;html=1;align=center;labelBackgroundColor=none;fillColor=#FAE5C7;strokeColor=#0F8B8D;fontColor=#143642;" vertex="1" parent="1">
          <mxGeometry y="43" width="240" height="117" as="geometry" />
        </mxCell>
        <mxCell id="HIus19SLdsaesvrfWsAR-3" value="git config --global user.name &quot;Your Username&quot;&lt;div&gt;git config --global user.email &quot;Your Email&quot;&lt;/div&gt;" style="html=1;rounded=1;fontSize=14;fontStyle=1;align=left;textShadow=0;labelBorderColor=none;labelBackgroundColor=none;shadow=1;fillColor=#FAE5C7;strokeColor=#0F8B8D;fontColor=#143642;" vertex="1" parent="1">
          <mxGeometry x="275" y="53" width="330" height="87" as="geometry" />
        </mxCell>
        <mxCell id="HIus19SLdsaesvrfWsAR-7" value="--lobal for global scope&lt;div&gt;--local for curret repo&lt;/div&gt;" style="text;html=1;align=center;verticalAlign=middle;whiteSpace=wrap;rounded=0;fontStyle=1;fillColor=#FAE5C7;strokeColor=#0F8B8D;fontColor=#143642;labelBackgroundColor=none;" vertex="1" parent="1">
          <mxGeometry x="680" y="20" width="150" height="50" as="geometry" />
        </mxCell>
        <mxCell id="HIus19SLdsaesvrfWsAR-8" value="" style="shape=flexArrow;endArrow=classic;html=1;rounded=0;width=16;endSize=9.8;exitX=0.2;exitY=1.08;exitDx=0;exitDy=0;exitPerimeter=0;labelBackgroundColor=none;strokeColor=#001DBC;fontColor=default;fillColor=#0050ef;" edge="1" parent="1" source="HIus19SLdsaesvrfWsAR-7">
          <mxGeometry width="50" height="50" relative="1" as="geometry">
            <mxPoint x="710" y="90" as="sourcePoint" />
            <mxPoint x="620" y="100" as="targetPoint" />
            <Array as="points">
              <mxPoint x="710" y="100" />
            </Array>
          </mxGeometry>
        </mxCell>
        <mxCell id="HIus19SLdsaesvrfWsAR-12" value="" style="edgeStyle=orthogonalEdgeStyle;rounded=0;orthogonalLoop=1;jettySize=auto;html=1;strokeColor=#A8201A;fontColor=#143642;fillColor=#FAE5C7;" edge="1" parent="1" source="HIus19SLdsaesvrfWsAR-9" target="HIus19SLdsaesvrfWsAR-11">
          <mxGeometry relative="1" as="geometry" />
        </mxCell>
        <mxCell id="HIus19SLdsaesvrfWsAR-9" value="git init&amp;nbsp;&lt;div&gt;&lt;span style=&quot;font-weight: normal;&quot;&gt;(for initialize git into a repository)&lt;/span&gt;&lt;/div&gt;" style="whiteSpace=wrap;html=1;fontSize=14;align=center;rounded=1;fontStyle=1;labelBorderColor=none;labelBackgroundColor=none;shadow=1;fillColor=#FAE5C7;strokeColor=#0F8B8D;fontColor=#143642;" vertex="1" parent="1">
          <mxGeometry x="345" y="160" width="230" height="60" as="geometry" />
        </mxCell>
        <mxCell id="HIus19SLdsaesvrfWsAR-37" value="" style="edgeStyle=orthogonalEdgeStyle;rounded=0;orthogonalLoop=1;jettySize=auto;html=1;strokeColor=#A8201A;fontColor=#143642;fillColor=#FAE5C7;exitX=0.5;exitY=1;exitDx=0;exitDy=0;" edge="1" parent="1" source="HIus19SLdsaesvrfWsAR-11" target="HIus19SLdsaesvrfWsAR-36">
          <mxGeometry relative="1" as="geometry">
            <mxPoint x="260" y="300" as="sourcePoint" />
          </mxGeometry>
        </mxCell>
        <mxCell id="HIus19SLdsaesvrfWsAR-11" value="git add .&amp;nbsp;&lt;div&gt;&lt;span style=&quot;font-weight: normal;&quot;&gt;(for adding files/folder into stagging area)&lt;/span&gt;&lt;/div&gt;" style="whiteSpace=wrap;html=1;fontSize=14;fillColor=#FAE5C7;strokeColor=#0F8B8D;fontColor=#143642;rounded=1;fontStyle=1;labelBorderColor=none;labelBackgroundColor=none;shadow=1;" vertex="1" parent="1">
          <mxGeometry x="5" y="180" width="270" height="60" as="geometry" />
        </mxCell>
        <mxCell id="HIus19SLdsaesvrfWsAR-13" value="git commit -m &quot;Massage/info&quot;&lt;div&gt;&lt;span style=&quot;font-weight: normal;&quot;&gt;(give massage or info what added/editing you doing&lt;/span&gt;&lt;/div&gt;" style="whiteSpace=wrap;html=1;fontSize=14;fillColor=#FAE5C7;strokeColor=#0F8B8D;fontColor=#143642;rounded=1;fontStyle=1;labelBorderColor=none;labelBackgroundColor=none;shadow=1;" vertex="1" parent="1">
          <mxGeometry x="13.75" y="270" width="245" height="70" as="geometry" />
        </mxCell>
        <mxCell id="HIus19SLdsaesvrfWsAR-15" value="git remote origin &quot;link github repository&lt;div&gt;&lt;span style=&quot;font-weight: 400;&quot;&gt;(to select remote github repository)&lt;/span&gt;&lt;/div&gt;" style="whiteSpace=wrap;html=1;fontSize=14;fillColor=#FAE5C7;strokeColor=#0F8B8D;fontColor=#143642;rounded=1;fontStyle=1;labelBorderColor=none;labelBackgroundColor=none;shadow=1;" vertex="1" parent="1">
          <mxGeometry x="310" y="560" width="290" height="60" as="geometry" />
        </mxCell>
        <mxCell id="HIus19SLdsaesvrfWsAR-17" value="git push -u origin main&lt;div&gt;&lt;span style=&quot;font-weight: normal;&quot;&gt;(to push local project into github)&lt;/span&gt;&lt;/div&gt;" style="whiteSpace=wrap;html=1;fontSize=14;fillColor=#FAE5C7;strokeColor=#0F8B8D;fontColor=#143642;rounded=1;fontStyle=1;labelBorderColor=none;labelBackgroundColor=none;shadow=1;" vertex="1" parent="1">
          <mxGeometry x="580" y="960" width="220" height="60" as="geometry" />
        </mxCell>
        <mxCell id="HIus19SLdsaesvrfWsAR-19" value="git branch &quot;New Branch&quot;&#xa;git checkout &quot;Branch Name&quot;" style="fontSize=14;fillColor=#FAE5C7;strokeColor=#0F8B8D;fontColor=#143642;rounded=1;fontStyle=1;labelBorderColor=none;labelBackgroundColor=none;shadow=1;spacing=2;" vertex="1" parent="1">
          <mxGeometry x="470" y="370" width="340" height="120" as="geometry" />
        </mxCell>
        <mxCell id="HIus19SLdsaesvrfWsAR-25" value="" style="edgeStyle=orthogonalEdgeStyle;rounded=0;orthogonalLoop=1;jettySize=auto;html=1;strokeColor=#A8201A;fontColor=#143642;fillColor=#FAE5C7;" edge="1" parent="1" source="HIus19SLdsaesvrfWsAR-22">
          <mxGeometry relative="1" as="geometry">
            <mxPoint x="570" y="990" as="targetPoint" />
          </mxGeometry>
        </mxCell>
        <mxCell id="HIus19SLdsaesvrfWsAR-22" value="" style="whiteSpace=wrap;html=1;fontSize=14;fillColor=#FAE5C7;strokeColor=#0F8B8D;fontColor=#143642;rounded=1;fontStyle=1;labelBorderColor=none;labelBackgroundColor=none;shadow=1;" vertex="1" parent="1">
          <mxGeometry x="50" y="940" width="172.5" height="100" as="geometry" />
        </mxCell>
        <mxCell id="HIus19SLdsaesvrfWsAR-30" value="git status&amp;nbsp;&lt;div&gt;&lt;span style=&quot;font-weight: normal;&quot;&gt;to checking status&lt;/span&gt;&lt;/div&gt;" style="text;html=1;align=center;verticalAlign=middle;whiteSpace=wrap;rounded=0;fontColor=#ffffff;strokeColor=#3700CC;fillColor=#6a00ff;fontSize=13;fontStyle=1" vertex="1" parent="1">
          <mxGeometry x="290" y="240" width="190" height="40" as="geometry" />
        </mxCell>
        <mxCell id="HIus19SLdsaesvrfWsAR-35" style="edgeStyle=orthogonalEdgeStyle;rounded=0;orthogonalLoop=1;jettySize=auto;html=1;exitX=0.5;exitY=1;exitDx=0;exitDy=0;entryX=0.413;entryY=0.05;entryDx=0;entryDy=0;entryPerimeter=0;strokeColor=#A8201A;fontColor=#143642;fillColor=#FAE5C7;" edge="1" parent="1" source="HIus19SLdsaesvrfWsAR-3" target="HIus19SLdsaesvrfWsAR-9">
          <mxGeometry relative="1" as="geometry" />
        </mxCell>
        <mxCell id="HIus19SLdsaesvrfWsAR-36" value="" style="shape=waypoint;sketch=0;size=6;pointerEvents=1;points=[];fillColor=#FAE5C7;resizable=0;rotatable=0;perimeter=centerPerimeter;snapToPoint=1;fontSize=14;strokeColor=#0F8B8D;fontColor=#143642;rounded=1;fontStyle=1;labelBorderColor=none;labelBackgroundColor=none;shadow=1;" vertex="1" parent="1">
          <mxGeometry x="126.25" y="260" width="20" height="20" as="geometry" />
        </mxCell>
      </root>
    </mxGraphModel>
  </diagram>
</mxfile>
